# xmcd
#
# Track frame offsets:
#	150
#	26872
#	47224
#	73009
#	89398
#	113103
#	146637
#	168417
#	185526
#	208616
#	225943
#	248132
#	264009
#	287069
#
# Disc length: 4163 seconds
#
# Revision: 1
# Processed by: cddbd v1.4PL0 Copyright (c) Steve Scherf et al.
# Submitted via: audiograbber 1.80
#
DISCID=c510410e
DTITLE=Rory Gallagher - Live 1981
DYEAR=1900
DGENRE=
TTITLE0=Last of the Independents
TTITLE1=Keychain
TTITLE2=Bought and Sold
TTITLE3=Wayward Child
TTITLE4=Mississippi Sheikhs
TTITLE5=One Million Miles Away
TTITLE6=Secret Agent
TTITLE7=Messin' With the Kid
TTITLE8=Moonchild
TTITLE9=As the Crow Flies
TTITLE10=Do You Read Me?
TTITLE11=Philby
TTITLE12=Hellcat
TTITLE13=Cruise Out
EXTD=
EXTT0=
EXTT1=
EXTT2=
EXTT3=
EXTT4=
EXTT5=
EXTT6=
EXTT7=
EXTT8=
EXTT9=
EXTT10=
EXTT11=
EXTT12=
EXTT13=
PLAYORDER=
